<?xml version="1.0" encoding="UTF-8"?>
<svg version="1.1" xmlns="http://www.w3.org/2000/svg" width="512" height="512">
<path d="M0 0 C10.71785489 9.75983434 16.1144577 21.24717873 17.05078125 35.7421875 C17.21464545 46.81667602 13.70970704 58.55062301 6.25 67.00390625 C5.86972656 67.63296875 5.48945313 68.26203125 5.09765625 68.91015625 C5.72417794 71.41392508 5.72417794 71.41392508 7.09765625 73.91015625 C12.2600626 87.2934512 13.57063331 98.04226454 9.09765625 111.91015625 C7.37684852 115.46745627 5.36654435 118.68018419 3.09765625 121.91015625 C2.52015625 122.79703125 1.94265625 123.68390625 1.34765625 124.59765625 C-7.53541244 133.72747685 -18.90661942 138.82012794 -31.598526 139.05732727 C-33.46547108 139.07234068 -35.33246479 139.08192085 -37.19946289 139.0871582 C-38.22308929 139.0937294 -39.2467157 139.1003006 -40.30136108 139.10707092 C-43.6800749 139.12673713 -47.05874436 139.13845293 -50.4375 139.1484375 C-52.17563367 139.15455079 -52.17563367 139.15455079 -53.94888115 139.16078758 C-60.08465266 139.18162189 -66.22040199 139.1959339 -72.35620117 139.20532227 C-78.6683958 139.21636891 -84.98023622 139.25075677 -91.29230595 139.29049397 C-96.16790894 139.31673903 -101.04342859 139.32502121 -105.91909599 139.32860374 C-108.24451522 139.33345084 -110.5699312 139.3450107 -112.89528084 139.36364174 C-130.03203824 139.49238874 -144.64726392 139.23356913 -157.90234375 126.91015625 C-166.94704844 116.47395853 -169.75049106 105.49621956 -168.90234375 91.91015625 C-166.9148616 80.17053709 -160.36887748 70.90082731 -150.90234375 63.91015625 C-145.29205296 60.23557982 -139.47250354 58.93337786 -132.90234375 57.91015625 C-132.80953125 56.54890625 -132.80953125 56.54890625 -132.71484375 55.16015625 C-131.04973877 44.02195402 -125.03345152 34.06226456 -116.48046875 26.875 C-105.16897832 18.60215529 -92.96204599 14.67921105 -78.90234375 15.91015625 C-65.10791016 18.20028271 -53.75872745 24.1484196 -45.046875 35.28125 C-37.90234375 45.74225502 -37.90234375 45.74225502 -37.90234375 50.91015625 C-36.92007813 50.85794922 -36.92007813 50.85794922 -35.91796875 50.8046875 C-24.94304493 50.4791601 -16.04399782 52.59750282 -6.86328125 58.703125 C-5.00225218 60.08488694 -5.00225218 60.08488694 -2.90234375 59.91015625 C3.10428819 50.48465518 6.18371869 41.344003 4.47265625 30.09765625 C2.22457502 20.38875546 -2.88520685 11.90220199 -11.328125 6.30078125 C-21.24262864 1.05827544 -30.62175438 -0.45892042 -41.46484375 2.66015625 C-45.07965533 3.81689596 -48.23909032 4.8671348 -51.27734375 7.16015625 C-54.69058761 9.43565216 -56.88348448 9.45115654 -60.90234375 8.91015625 C-62.90234375 5.91015625 -62.90234375 5.91015625 -63.08984375 3.09765625 C-61.223264 -1.91263677 -57.52290197 -3.69174701 -52.90234375 -6.08984375 C-35.09022577 -13.92618057 -15.26532227 -12.68071744 0 0 Z M-113.90234375 40.91015625 C-120.1027363 49.24968423 -122.20393221 56.75582341 -123.90234375 66.91015625 C-124.81113281 67.05710937 -124.81113281 67.05710937 -125.73828125 67.20703125 C-135.8872164 69.01822583 -145.01668624 71.83098477 -151.90234375 79.91015625 C-156.71202062 87.56735326 -159.19271651 95.21771447 -157.44140625 104.30078125 C-155.31507906 112.45587142 -151.18080361 119.21116489 -143.95986938 123.79765892 C-136.82942505 127.65306667 -129.33854919 128.35083306 -121.37890625 128.29833984 C-120.37913757 128.3035968 -119.3793689 128.30885376 -118.3493042 128.31427002 C-115.07515404 128.32737316 -111.80149805 128.31876624 -108.52734375 128.30859375 C-106.23388578 128.31061726 -103.94042844 128.31353101 -101.64697266 128.31729126 C-96.85247643 128.32170151 -92.05814847 128.31532535 -87.26367188 128.30126953 C-81.13740645 128.28417865 -75.01153541 128.29402679 -68.88528442 128.31198692 C-64.15304629 128.32285981 -59.42090069 128.31936232 -54.68865967 128.31160355 C-52.43056185 128.30961123 -50.17245547 128.31202654 -47.91436768 128.31904221 C-44.75128115 128.32671442 -41.58882145 128.31497166 -38.42578125 128.29833984 C-37.04456085 128.30744888 -37.04456085 128.30744888 -35.63543701 128.31674194 C-24.85912173 128.21248145 -16.00305852 125.10146435 -7.90234375 117.91015625 C-2.15606054 111.49851393 0.97979583 103.66960206 1.15625 95.046875 C0.53998947 85.56695231 -2.3126233 77.8595776 -8.90234375 70.91015625 C-19.84149539 61.62654672 -31.25989374 61.48284053 -44.90234375 61.91015625 C-45.27359375 60.83765625 -45.64484375 59.76515625 -46.02734375 58.66015625 C-50.95094157 45.74429965 -56.47871981 35.75438843 -69.46484375 29.875 C-85.75790378 23.42566374 -102.37958044 27.51883673 -113.90234375 40.91015625 Z " fill="#000000" transform="translate(317.90234375,206.08984375)"/>
<path d="M0 0 C3.07119167 0.83719716 6.03770201 1.83702375 9 3 C9.625 5.8125 9.625 5.8125 10 9 C9.01 10.485 9.01 10.485 8 12 C1.60311789 13.14405776 -5.84397508 11.91783853 -12 10 C-14 8 -14 8 -14.3125 4.5 C-14.209375 3.345 -14.10625 2.19 -14 1 C-9.42985751 -2.04676166 -5.26149399 -0.88040935 0 0 Z " fill="#000000" transform="translate(353,249)"/>
<path d="M0 0 C1 1 1 1 1.4453125 4.25390625 C1 8 1 8 -1.6328125 10.65234375 C-2.78024508 11.43889028 -3.94531977 12.20019985 -5.125 12.9375 C-5.69476563 13.33517578 -6.26453125 13.73285156 -6.8515625 14.14257812 C-10.66928464 16.6631424 -13.452374 17.60723018 -18 17 C-19.9375 15.3125 -19.9375 15.3125 -21 13 C-20.94921875 10.66015625 -20.94921875 10.66015625 -20 8 C-17.96682013 6.12004528 -16.14082088 4.65568789 -13.875 3.125 C-13.318125 2.70992187 -12.76125 2.29484375 -12.1875 1.8671875 C-7.82770853 -1.14649324 -5.06115561 -1.32524025 0 0 Z " fill="#000000" transform="translate(350,198)"/>
<path d="M0 0 C3.37552649 1.85043922 4.79210224 3.97079252 6.90625 7.171875 C7.60363281 8.19796875 8.30101562 9.2240625 9.01953125 10.28125 C10.73186522 13.69741999 11.0832193 15.65672653 10.59375 19.421875 C8.59375 21.421875 8.59375 21.421875 5.84375 21.984375 C1.0000354 21.14603978 -0.63668748 18.27281164 -3.40625 14.421875 C-4.19 13.41125 -4.97375 12.400625 -5.78125 11.359375 C-7.64815444 7.9845862 -8.16390565 6.21015327 -7.40625 2.421875 C-4.79485027 0.03430954 -3.50670357 -0.84251969 0 0 Z " fill="#000000" transform="translate(248.40625,178.578125)"/>
<path d="M0 0 C2.875 0.6875 2.875 0.6875 3.875 1.6875 C4.3639086 9.14335614 2.90862915 15.53348316 0.875 22.6875 C-2.4375 23.375 -2.4375 23.375 -6.125 23.6875 C-7.8671875 22.53125 -7.8671875 22.53125 -9.125 20.6875 C-9.5011255 14.39502206 -8.07677231 7.65124871 -6.125 1.6875 C-3.125 -0.3125 -3.125 -0.3125 0 0 Z " fill="#000000" transform="translate(301.125,167.3125)"/>
</svg>
